<?xml version="1.0" encoding="iso-8859-1"?>
<!-- Generator: Adobe Illustrator 18.0.0, SVG Export Plug-In . SVG Version: 6.00 Build 0)  -->
<!DOCTYPE svg PUBLIC "-//W3C//DTD SVG 1.1//EN" "http://www.w3.org/Graphics/SVG/1.1/DTD/svg11.dtd">
<svg version="1.1" id="Capa_1" xmlns="http://www.w3.org/2000/svg" xmlns:xlink="http://www.w3.org/1999/xlink" x="0px" y="0px"
	 viewBox="0 0 297 297" style="enable-background:new 0 0 297 297;" xml:space="preserve">
<path d="M269.963,297c5.442,0,9.854-4.412,9.854-9.853V100.279c0-5.441-4.412-9.854-9.854-9.854h-83.578V9.854
	c0-5.441-4.412-9.854-9.854-9.854h-74.747c-5.441,0-9.854,4.412-9.854,9.854v43.198H27.037c-5.442,0-9.854,4.412-9.854,9.854
	v224.241c0,5.441,4.412,9.853,9.854,9.853H269.963z M36.891,144.065h55.04v77.847h-55.04V144.065z M111.639,72.672h55.038v17.753
	h-55.038V72.672z M186.385,147.507h73.725v55.605h-73.725V147.507z M260.109,127.799h-73.725v-17.666h73.725V127.799z
	 M166.677,19.708v33.431h-55.038V19.708H166.677z M91.931,72.76v51.598h-55.04V72.76H91.931z M36.891,241.62h55.04v35.672h-55.04
	V241.62z M111.639,110.133h55.038v167.159h-55.038V110.133z M186.385,277.292V222.82h73.725v54.472H186.385z"/>
<g>
</g>
<g>
</g>
<g>
</g>
<g>
</g>
<g>
</g>
<g>
</g>
<g>
</g>
<g>
</g>
<g>
</g>
<g>
</g>
<g>
</g>
<g>
</g>
<g>
</g>
<g>
</g>
<g>
</g>
</svg>
