<svg xmlns="http://www.w3.org/2000/svg" width="168" height="56" viewBox="0 0 168 56"><defs><style>.a{opacity:0.995;}.b,.d,.f{fill:none;}.b,.d{stroke:#fcfcfc;stroke-linejoin:round;}.b{stroke-width:2px;}.c{fill:#fcfcfc;font-size:20px;font-family:Roboto-Medium, Roboto;font-weight:500;}.d{stroke-linecap:round;stroke-width:2.83px;}.e{stroke:none;}</style></defs><g class="a"><g class="b"><rect class="e" width="168" height="56"/><rect class="f" x="1" y="1" width="166" height="54"/></g></g><g transform="translate(21.958 15.155)"><g transform="translate(7.04 -0.155)"><text class="c" transform="translate(0 21)"><tspan x="0" y="0">daymode</tspan></text></g></g><g transform="translate(121.829 15.288)"><path class="d" d="M30.426,25.421a5,5,0,1,1-5-5,5,5,0,0,1,5,5Z" transform="translate(-11.494 -11.494)"/><path class="d" d="M35,2.917v2" transform="translate(-21.073)"/><path class="d" d="M35,61.25v2" transform="translate(-21.073 -38.314)"/><path class="d" d="M12.308,12.308,13.73,13.73" transform="translate(-6.169 -6.169)"/><path class="d" d="M53.55,53.55l1.421,1.421" transform="translate(-33.257 -33.257)"/><path class="d" d="M2.917,35h2" transform="translate(0 -21.073)"/><path class="d" d="M61.25,35h2" transform="translate(-38.314 -21.073)"/><path class="d" d="M12.308,54.971,13.73,53.55" transform="translate(-6.169 -33.257)"/><path class="d" d="M53.55,13.73l1.421-1.421" transform="translate(-33.257 -6.169)"/></g></svg>