<svg xmlns="http://www.w3.org/2000/svg" width="488" height="277.38" viewBox="0 0 488 277.38"><defs><style>.a,.b{fill:#fcfcfc;}.a{font-size:70px;font-family:WorkSans-SemiBold, Work Sans;font-weight:600;}</style></defs><g transform="translate(-1364 -721)"><text class="a" transform="translate(1364 721)"><tspan x="57.22" y="65">You can also </tspan><tspan x="21.03" y="130">check out my </tspan><tspan x="55.89" y="195">social media</tspan></text><path class="b" d="M57.4,9.9a23.224,23.224,0,0,1-6.6,1.815,11.527,11.527,0,0,0,5.054-6.36,22.826,22.826,0,0,1-7.3,2.788A11.484,11.484,0,0,0,28.691,16a11.246,11.246,0,0,0,.3,2.622A32.554,32.554,0,0,1,5.3,6.6,11.51,11.51,0,0,0,8.876,21.953a11.22,11.22,0,0,1-5.221-1.436v.142a11.5,11.5,0,0,0,9.219,11.272,11.563,11.563,0,0,1-3.026.4,10.837,10.837,0,0,1-2.159-.214,11.505,11.505,0,0,0,10.738,7.985A23.031,23.031,0,0,1,4.154,45.031a23.285,23.285,0,0,1-2.741-.166A32.109,32.109,0,0,0,19,50.061c21.155,0,32.712-17.525,32.712-32.724,0-.5-.012-1-.036-1.483A23.384,23.384,0,0,0,57.4,9.9Z" transform="translate(1552.307 948.319)"/><path class="b" d="M10,44.659H.738V14.843H10ZM5.362,10.776a5.387,5.387,0,1,1,5.362-5.413A5.407,5.407,0,0,1,5.362,10.776ZM44.648,44.659H35.41V30.145c0-3.459-.07-7.895-4.814-7.895-4.814,0-5.551,3.758-5.551,7.646V44.659H15.8V14.843h8.88V18.91h.13a9.729,9.729,0,0,1,8.76-4.815c9.37,0,11.093,6.17,11.093,14.185V44.659Z" transform="translate(1680.697 952.817)"/><g transform="translate(1796.01 959.158)"><path class="b" d="M62.1,20.138,47.613,34.995a.263.263,0,0,0,0,.38L57.748,46.245a1.757,1.757,0,1,1-2.477,2.494L45.177,37.909a.275.275,0,0,0-.39,0L42.324,40.43a10.8,10.8,0,0,1-7.726,3.28,11.016,11.016,0,0,1-7.887-3.375l-2.369-2.426a.275.275,0,0,0-.39,0L13.857,48.74a1.757,1.757,0,1,1-2.477-2.494L21.516,35.374a.29.29,0,0,0,0-.38L7.02,20.138a.265.265,0,0,0-.458.19V50.055a4.335,4.335,0,0,0,4.307,4.338H58.246a4.335,4.335,0,0,0,4.307-4.338V20.328A.269.269,0,0,0,62.1,20.138Z" transform="translate(-6.563 -15.629)"/><path class="b" d="M34.668,38.673a7.559,7.559,0,0,0,5.279-2.092L61.133,16.206a4.4,4.4,0,0,0-2.673-.893H10.89a4.37,4.37,0,0,0-2.673.893L29.4,36.581A7.559,7.559,0,0,0,34.668,38.673Z" transform="translate(-6.673 -15.313)"/></g></g></svg>