<svg xmlns="http://www.w3.org/2000/svg" width="30" height="30" viewBox="0 0 46.793 45.837"><defs><style>.a{fill:#156cb9;}</style></defs><path class="a" d="M45.137,7.09A11.456,11.456,0,0,1,28.9,21.462l-3.169,3.461,2.261,2.27,1.351-1.351a1.766,1.766,0,0,1,2.5,0L42.8,36.911a1.766,1.766,0,0,1,0,2.5l-5,5a1.766,1.766,0,0,1-2.5,0L24.34,33.344a1.766,1.766,0,0,1,0-2.5l1.234-1.234-2.155-2.16L8.266,44a3.535,3.535,0,0,1-5,0l-1.25-1.25a3.535,3.535,0,0,1,0-5L19.278,23.294,7.812,11.8l-3.621,0L0,5.058,3.373,1.68,10.264,5.9l.045,3.546,11.6,11.644,3.374-2.825A11.468,11.468,0,0,1,38.869.851l-7.43,7.327,6.254,6.254L45.137,7.09Z" transform="matrix(1, 0.017, -0.017, 1, 0.786, 0)"/></svg>