<svg xmlns="http://www.w3.org/2000/svg" width="33.412" height="48.599" viewBox="0 0 33.412 48.599"><defs><style>.a{fill:#156cb9;}</style></defs><path class="a" d="M31.893,18.225H30.374a1.518,1.518,0,0,0-1.519,1.519V24.3A12.164,12.164,0,0,1,15.492,36.39C9.18,35.774,4.556,30.1,4.556,23.758V19.743a1.518,1.518,0,0,0-1.519-1.519H1.519A1.518,1.518,0,0,0,0,19.743v3.812C0,32.064,6.072,39.649,14.428,40.8v3.242H9.112a1.518,1.518,0,0,0-1.519,1.519V47.08A1.518,1.518,0,0,0,9.112,48.6H24.3a1.518,1.518,0,0,0,1.519-1.519V45.562A1.518,1.518,0,0,0,24.3,44.043H18.984V40.837A16.722,16.722,0,0,0,33.412,24.3V19.743A1.518,1.518,0,0,0,31.893,18.225ZM16.706,33.412A9.112,9.112,0,0,0,25.818,24.3h-8.1c-.559,0-1.013-.34-1.013-.759V22.021c0-.42.454-.759,1.013-.759h8.1V18.225h-8.1c-.559,0-1.013-.34-1.013-.759V15.947c0-.42.454-.759,1.013-.759h8.1V12.15h-8.1c-.559,0-1.013-.34-1.013-.759V9.872c0-.42.454-.759,1.013-.759h8.1a9.112,9.112,0,1,0-18.225,0V24.3A9.112,9.112,0,0,0,16.706,33.412Z"/></svg>