<svg xmlns="http://www.w3.org/2000/svg" width="54.221" height="41.075" viewBox="0 0 54.221 41.075"><defs><style>.a{fill:#156cb9;}</style></defs><path class="a" d="M20.073,8.364a8.364,8.364,0,1,1,8.364,8.364A8.364,8.364,0,0,1,20.073,8.364ZM0,8.364a8.364,8.364,0,1,1,8.364,8.364A8.364,8.364,0,0,1,0,8.364ZM40.146,25.092V20.073A3.355,3.355,0,0,0,36.8,16.728H3.346A3.355,3.355,0,0,0,0,20.073V36.8a3.355,3.355,0,0,0,3.346,3.346H36.8A3.355,3.355,0,0,0,40.146,36.8V31.783l13.382,8.364V16.728Zm-6.691,8.364H6.691V23.419H33.455Z" transform="matrix(1, 0.017, -0.017, 1, 0.701, 0)"/></svg>