<svg xmlns="http://www.w3.org/2000/svg" width="1920" height="186" viewBox="0 0 1920 186"><defs><style>.a{fill:#0f3658;}.b,.c,.d,.e{fill:#fcfcfc;}.b,.f{stroke:#fcfcfc;}.b{stroke-linecap:square;stroke-width:0.5px;}.c{font-size:25px;}.c,.d{font-family:Roboto-Medium, Roboto;font-weight:500;}.c,.d,.e{letter-spacing:0.01em;}.d{font-size:27px;}.e{font-size:18px;font-family:Roboto-Regular, Roboto;}.f{fill:none;stroke-width:2px;}</style></defs><rect class="a" width="1920" height="186"/><g transform="translate(101 67)"><path class="b" d="M769.632,468.106a4.337,4.337,0,0,0,3.637,1.453,7.949,7.949,0,0,0,2.6-.342l-.1-1.974a15.118,15.118,0,0,1-1.971.2,2.558,2.558,0,0,1-2.2-.9,4.588,4.588,0,0,1-.661-2.726V449.158h4.551v-1.991h-4.551v-5.628h-2.438v5.628h-4.044v1.991h4.044v14.67A6.835,6.835,0,0,0,769.632,468.106Z" transform="translate(-764.451 -437.942)"/><path class="b" d="M823.257,459.552l-6.42,18.49-6.827-18.49h-2.662l8.29,21.8-3.575,9.167,2.548-.011,11.267-30.959Z" transform="translate(-793.945 -450.328)"/><rect class="b" width="2.438" height="31.21" transform="translate(35.042)"/><path class="b" d="M898.723,479.668a9.54,9.54,0,0,0,5.069,1.382,8.871,8.871,0,0,0,7.782-3.881l-1.524-1.158a7.634,7.634,0,0,1-2.713,2.275,7.914,7.914,0,0,1-3.444.711,6.819,6.819,0,0,1-5.395-2.489,9.2,9.2,0,0,1-2.144-6.228v-.467h15.686v-1.361a11.086,11.086,0,0,0-2.347-7.467,7.939,7.939,0,0,0-6.35-2.733,8.446,8.446,0,0,0-4.755,1.453,9.779,9.779,0,0,0-3.423,3.992,12.933,12.933,0,0,0-1.23,5.71v.874a12,12,0,0,0,1.26,5.537A9.411,9.411,0,0,0,898.723,479.668Zm0-17.332a6.077,6.077,0,0,1,4.622-2.012,5.605,5.605,0,0,1,4.47,1.991,8.069,8.069,0,0,1,1.808,5.161v.264H896.437A9.291,9.291,0,0,1,898.723,462.336Z" transform="translate(-853.48 -449.434)"/><path class="b" d="M974.283,458.516a4,4,0,0,0-1.6-.264,6.466,6.466,0,0,0-6.2,3.9l-.041-3.495h-2.377v21.985h2.418v-15.1a6.957,6.957,0,0,1,2.245-3.688,5.939,5.939,0,0,1,3.851-1.27,9.092,9.092,0,0,1,1.646.142Z" transform="translate(-901.695 -449.434)"/><path class="b" d="M787.034,560.231,780.289,541.6h-2.5l8.249,21.985h1.971l5.126-13.729h-2.5Z" transform="translate(-773.622 -506.739)"/><path class="b" d="M856.073,547.267a6.6,6.6,0,0,0-2.184-5.13,8.565,8.565,0,0,0-5.8-1.839,9.388,9.388,0,0,0-5.994,1.92,5.654,5.654,0,0,0-2.438,4.541l2.438.02a3.863,3.863,0,0,1,1.666-3.129,6.63,6.63,0,0,1,4.206-1.3A6.007,6.007,0,0,1,852.2,543.7a4.818,4.818,0,0,1,1.453,3.708v2.5h-4.409q-4.775,0-7.447,1.869a5.884,5.884,0,0,0-2.672,5.08,5.757,5.757,0,0,0,1.961,4.47,7.368,7.368,0,0,0,5.13,1.767,9.994,9.994,0,0,0,4.2-.9,8.477,8.477,0,0,0,3.261-2.57,11.515,11.515,0,0,0,.467,3.068h2.6v-.244a12.9,12.9,0,0,1-.671-4.775Zm-2.418,9.346a6.934,6.934,0,0,1-2.794,3.15,8.163,8.163,0,0,1-4.359,1.178,5.166,5.166,0,0,1-3.566-1.219,3.93,3.93,0,0,1-1.371-3.068,3.994,3.994,0,0,1,2.052-3.546,10.9,10.9,0,0,1,5.689-1.331h4.348Z" transform="translate(-815.795 -505.845)"/><path class="b" d="M919.34,558.464l-.467,2.133-.569-2.316L913.081,541.6h-2.072l-5.283,16.824-.488,1.991-.366-1.89L900.219,541.6h-2.5l6.38,21.985h2.073l5.547-17.413.264-1.219.264,1.2,5.649,17.433h2.073l6.4-21.985h-2.52Z" transform="translate(-855.258 -506.739)"/><path class="b" d="M1005.511,552.022a20.734,20.734,0,0,0-4.8-1.605,12.774,12.774,0,0,1-4.409-1.656,3,3,0,0,1-1.209-2.55,3.291,3.291,0,0,1,1.453-2.773,7.292,7.292,0,0,1,7.924.213,3.937,3.937,0,0,1,1.615,3.21h2.438a5.836,5.836,0,0,0-2.225-4.744,9.039,9.039,0,0,0-5.9-1.819,8.78,8.78,0,0,0-5.567,1.7,5.23,5.23,0,0,0-2.174,4.3,4.891,4.891,0,0,0,.782,2.8,6.049,6.049,0,0,0,2.4,1.961,19.749,19.749,0,0,0,4.541,1.422,11.215,11.215,0,0,1,4.379,1.717,3.465,3.465,0,0,1,1.453,2.906,3.353,3.353,0,0,1-1.565,2.824,6.909,6.909,0,0,1-4.1,1.118,7.351,7.351,0,0,1-4.379-1.189,4.226,4.226,0,0,1-1.8-3.322h-2.438a5.723,5.723,0,0,0,2.387,4.7,9.848,9.848,0,0,0,6.228,1.859,9.591,9.591,0,0,0,5.862-1.666,5.643,5.643,0,0,0,1.473-7.355A6.209,6.209,0,0,0,1005.511,552.022Z" transform="translate(-919.207 -505.845)"/><path class="b" d="M1062.121,540.3a8.45,8.45,0,0,0-4.755,1.453,9.787,9.787,0,0,0-3.424,3.993,12.938,12.938,0,0,0-1.229,5.71v.874a12,12,0,0,0,1.26,5.537,9.415,9.415,0,0,0,3.525,3.85,9.541,9.541,0,0,0,5.07,1.382,8.87,8.87,0,0,0,7.782-3.881l-1.524-1.158a7.636,7.636,0,0,1-2.712,2.276,7.922,7.922,0,0,1-3.444.711,6.819,6.819,0,0,1-5.395-2.489,9.2,9.2,0,0,1-2.144-6.228v-.467h15.686V550.5a11.087,11.087,0,0,0-2.347-7.467A7.94,7.94,0,0,0,1062.121,540.3Zm6.278,9.489h-13.187a9.291,9.291,0,0,1,2.286-5.4,6.079,6.079,0,0,1,4.623-2.011,5.6,5.6,0,0,1,4.47,1.991,8.069,8.069,0,0,1,1.808,5.161Z" transform="translate(-960.177 -505.845)"/><path class="b" d="M1131.453,540.3a6.466,6.466,0,0,0-6.2,3.9l-.04-3.495h-2.378v21.985h2.418v-15.1a6.959,6.959,0,0,1,2.245-3.688,5.941,5.941,0,0,1,3.851-1.27,9.1,9.1,0,0,1,1.646.142l.061-2.215A4,4,0,0,0,1131.453,540.3Z" transform="translate(-1008.392 -505.845)"/></g><text class="c" transform="translate(1693 89)"><tspan x="0" y="0">Learn more</tspan></text><text class="d" transform="translate(1368 91)"><tspan x="0" y="0">Get in touch</tspan></text><text class="e" transform="translate(1619 120)"><tspan x="0" y="0">About / Posts / Favorites</tspan></text><text class="e" transform="translate(1188 120)"><tspan x="0" y="0">Set up a Call / Twitter / Email / Linked In</tspan></text><path class="f" d="M0,59.984V0" transform="translate(1538.5 65.166)"/><path class="f" d="M0,59.984V0" transform="translate(1845.5 65.166)"/></svg>