<svg xmlns="http://www.w3.org/2000/svg" width="253.368" height="116.623" viewBox="0 0 253.368 116.623"><defs><style>.a{fill:#666461;stroke:#666461;stroke-linecap:square;stroke-width:0.5px;}</style></defs><g transform="translate(0.25 0.25)"><g transform="translate(0 0)"><path class="a" d="M774.96,495.424q2.308,2.947,7.377,2.947a16.125,16.125,0,0,0,5.275-.695l-.206-4a30.64,30.64,0,0,1-4,.413q-3.133,0-4.471-1.816a9.305,9.305,0,0,1-1.34-5.529V456.993h9.232v-4.039H777.6V441.539h-4.945v11.415h-8.2v4.039h8.2v29.756Q772.653,492.478,774.96,495.424Z" transform="translate(-764.451 -434.244)"/><path class="a" d="M839.617,459.552l-13.023,37.5-13.848-37.5h-5.4l16.815,44.222-7.251,18.594,5.168-.022,22.854-62.794Z" transform="translate(-780.162 -440.842)"/><rect class="a" width="4.945" height="63.303" transform="translate(71.076)"/><path class="a" d="M903.644,501.69a19.349,19.349,0,0,0,10.282,2.8q10.344,0,15.784-7.872l-3.091-2.349a15.484,15.484,0,0,1-5.5,4.615,16.053,16.053,0,0,1-6.986,1.443,13.83,13.83,0,0,1-10.942-5.049,18.666,18.666,0,0,1-4.348-12.632V481.7h31.816v-2.761q0-9.6-4.76-15.146t-12.879-5.543a17.13,17.13,0,0,0-9.644,2.947,19.836,19.836,0,0,0-6.944,8.1,26.233,26.233,0,0,0-2.494,11.581v1.772a24.338,24.338,0,0,0,2.555,11.23A19.088,19.088,0,0,0,903.644,501.69Zm0-35.155a12.326,12.326,0,0,1,9.375-4.08,11.369,11.369,0,0,1,9.067,4.039,16.367,16.367,0,0,1,3.668,10.468v.535H899.007A18.846,18.846,0,0,1,903.644,466.536Z" transform="translate(-811.877 -440.365)"/><path class="a" d="M984.792,458.787a8.119,8.119,0,0,0-3.255-.535q-8.654,0-12.57,7.912l-.083-7.088h-4.821v44.592h4.9V473.047a14.111,14.111,0,0,1,4.554-7.48,12.046,12.046,0,0,1,7.81-2.576,18.45,18.45,0,0,1,3.338.288Z" transform="translate(-837.561 -440.365)"/><path class="a" d="M796.541,579.391,782.858,541.6h-5.069l16.732,44.593h4l10.4-27.848h-5.069Z" transform="translate(-769.336 -470.892)"/><path class="a" d="M873.5,554.434q-.123-6.676-4.43-10.406T857.3,540.3a19.042,19.042,0,0,0-12.158,3.895q-4.946,3.895-4.946,9.211l4.946.041a7.835,7.835,0,0,1,3.38-6.346,13.447,13.447,0,0,1,8.531-2.638q5.646,0,8.593,2.741a9.772,9.772,0,0,1,2.947,7.521v5.069h-8.943q-9.686,0-15.1,3.792a11.936,11.936,0,0,0-5.42,10.3,11.677,11.677,0,0,0,3.977,9.067,14.945,14.945,0,0,0,10.406,3.585,20.272,20.272,0,0,0,8.511-1.833,17.194,17.194,0,0,0,6.614-5.214,23.333,23.333,0,0,0,.948,6.223h5.275v-.495q-1.359-3.214-1.36-9.685Zm-4.9,18.958a14.064,14.064,0,0,1-5.667,6.388,16.557,16.557,0,0,1-8.841,2.39,10.479,10.479,0,0,1-7.233-2.473,7.971,7.971,0,0,1-2.781-6.222,8.1,8.1,0,0,1,4.162-7.192q4.161-2.617,11.54-2.7h8.82Z" transform="translate(-791.802 -470.416)"/><path class="a" d="M941.571,575.806l-.948,4.327-1.154-4.7L928.877,541.6h-4.2l-10.715,34.124-.989,4.039-.742-3.833L902.789,541.6H897.72l12.941,44.593h4.2l11.251-35.32.535-2.473.536,2.432,11.457,35.361h4.2L955.83,541.6h-5.11Z" transform="translate(-811.592 -470.892)"/><path class="a" d="M1019.479,564.078a42.081,42.081,0,0,0-9.726-3.255q-6.491-1.524-8.943-3.359a6.081,6.081,0,0,1-2.452-5.172,6.677,6.677,0,0,1,2.947-5.626,14.791,14.791,0,0,1,16.073.433,7.984,7.984,0,0,1,3.277,6.511h4.945a11.837,11.837,0,0,0-4.513-9.623q-4.514-3.688-11.973-3.689-6.883,0-11.292,3.442a10.608,10.608,0,0,0-4.41,8.716A9.921,9.921,0,0,0,995,558.143a12.269,12.269,0,0,0,4.863,3.978,40.06,40.06,0,0,0,9.211,2.884q5.934,1.259,8.882,3.483a7.028,7.028,0,0,1,2.946,5.893,6.8,6.8,0,0,1-3.173,5.728,14.014,14.014,0,0,1-8.325,2.267,14.91,14.91,0,0,1-8.881-2.411,8.572,8.572,0,0,1-3.647-6.738h-4.946a11.608,11.608,0,0,0,4.842,9.541q4.843,3.771,12.632,3.771,7.336,0,11.89-3.379a11.445,11.445,0,0,0,2.988-14.919A12.6,12.6,0,0,0,1019.479,564.078Z" transform="translate(-844.427 -470.416)"/><path class="a" d="M1071.794,540.3a17.137,17.137,0,0,0-9.644,2.947,19.845,19.845,0,0,0-6.945,8.1,26.239,26.239,0,0,0-2.493,11.581V564.7a24.351,24.351,0,0,0,2.555,11.23,19.094,19.094,0,0,0,7.15,7.81,19.353,19.353,0,0,0,10.282,2.8q10.345,0,15.785-7.872l-3.091-2.349a15.485,15.485,0,0,1-5.5,4.616,16.07,16.07,0,0,1-6.986,1.442,13.83,13.83,0,0,1-10.942-5.048,18.666,18.666,0,0,1-4.348-12.632v-.948h31.816v-2.761q0-9.6-4.76-15.146T1071.794,540.3Zm12.734,19.247h-26.747a18.849,18.849,0,0,1,4.636-10.963,12.331,12.331,0,0,1,9.376-4.079,11.368,11.368,0,0,1,9.067,4.038,16.367,16.367,0,0,1,3.668,10.469Z" transform="translate(-865.02 -470.416)"/><path class="a" d="M1140.312,540.3q-8.655,0-12.57,7.913l-.082-7.088h-4.822v44.592h4.9V555.094a14.113,14.113,0,0,1,4.554-7.481,12.048,12.048,0,0,1,7.81-2.575,18.441,18.441,0,0,1,3.339.288l.124-4.492A8.122,8.122,0,0,0,1140.312,540.3Z" transform="translate(-890.705 -470.416)"/></g></g></svg>