<svg xmlns="http://www.w3.org/2000/svg" width="100" height="63.35" viewBox="0 0 137.365 63.35"><defs><style>.a{fill:#fcfcfc;stroke:#fcfcfc;stroke-linecap:square;stroke-width:0.5px;}</style></defs><g transform="translate(0.25 0.25)"><path class="a" d="M770.139,470.7a4.76,4.76,0,0,0,3.993,1.595,8.726,8.726,0,0,0,2.855-.376l-.111-2.167a16.589,16.589,0,0,1-2.164.223,2.808,2.808,0,0,1-2.42-.983,5.036,5.036,0,0,1-.725-2.992V449.9h5v-2.186h-5v-6.179H768.89v6.179h-4.439V449.9h4.439v16.105A7.5,7.5,0,0,0,770.139,470.7Z" transform="translate(-764.451 -437.591)"/><path class="a" d="M824.813,459.552l-7.048,20.3-7.495-20.3h-2.922l9.1,23.935-3.924,10.064,2.8-.012,12.369-33.987Z" transform="translate(-792.634 -449.425)"/><rect class="a" width="2.677" height="34.262" transform="translate(38.469)"/><path class="a" d="M899.191,481.763a10.473,10.473,0,0,0,5.565,1.517,9.739,9.739,0,0,0,8.543-4.26l-1.673-1.271a8.38,8.38,0,0,1-2.978,2.5,8.688,8.688,0,0,1-3.781.781,7.485,7.485,0,0,1-5.922-2.733,10.1,10.1,0,0,1-2.353-6.837v-.513h17.22V469.45q0-5.2-2.576-8.2a8.716,8.716,0,0,0-6.971-3,9.272,9.272,0,0,0-5.22,1.595,10.736,10.736,0,0,0-3.758,4.383,14.2,14.2,0,0,0-1.35,6.268v.959a13.173,13.173,0,0,0,1.383,6.078A10.332,10.332,0,0,0,899.191,481.763Zm0-19.027a6.671,6.671,0,0,1,5.074-2.208,6.153,6.153,0,0,1,4.907,2.186,8.858,8.858,0,0,1,1.985,5.666v.29H896.682A10.2,10.2,0,0,1,899.191,462.735Z" transform="translate(-849.523 -448.571)"/><path class="a" d="M975.283,458.542a4.395,4.395,0,0,0-1.762-.29,7.1,7.1,0,0,0-6.8,4.282l-.045-3.837h-2.609v24.135h2.654V466.26a7.637,7.637,0,0,1,2.465-4.048,6.52,6.52,0,0,1,4.227-1.394,9.986,9.986,0,0,1,1.807.156Z" transform="translate(-895.595 -448.571)"/><path class="a" d="M787.939,562.054,780.533,541.6h-2.744l9.056,24.135h2.164l5.628-15.072h-2.744Z" transform="translate(-773.214 -503.329)"/><path class="a" d="M857.73,547.949a7.245,7.245,0,0,0-2.4-5.632,9.4,9.4,0,0,0-6.369-2.019,10.306,10.306,0,0,0-6.58,2.108,6.207,6.207,0,0,0-2.677,4.985l2.677.022a4.241,4.241,0,0,1,1.829-3.435,7.278,7.278,0,0,1,4.617-1.428,6.6,6.6,0,0,1,4.651,1.484,5.289,5.289,0,0,1,1.595,4.071v2.744h-4.84q-5.242,0-8.175,2.052a6.46,6.46,0,0,0-2.933,5.577,6.32,6.32,0,0,0,2.153,4.907,8.088,8.088,0,0,0,5.632,1.94,10.972,10.972,0,0,0,4.606-.992,9.306,9.306,0,0,0,3.58-2.822,12.629,12.629,0,0,0,.513,3.368h2.855v-.268a14.168,14.168,0,0,1-.736-5.242Zm-2.654,10.261a7.612,7.612,0,0,1-3.067,3.458,8.961,8.961,0,0,1-4.785,1.294,5.672,5.672,0,0,1-3.915-1.338,4.315,4.315,0,0,1-1.505-3.368,4.385,4.385,0,0,1,2.253-3.892A11.964,11.964,0,0,1,850.3,552.9h4.774Z" transform="translate(-813.513 -502.475)"/><path class="a" d="M921.454,560.113l-.513,2.342-.625-2.543L914.583,541.6h-2.275l-5.8,18.47-.536,2.186-.4-2.074L900.464,541.6H897.72l7,24.135H907l6.09-19.116.29-1.338.29,1.316,6.2,19.139h2.275l7.026-24.135h-2.766Z" transform="translate(-851.104 -503.329)"/><path class="a" d="M1006.84,553.169a22.772,22.772,0,0,0-5.264-1.762,14.021,14.021,0,0,1-4.84-1.818,3.291,3.291,0,0,1-1.327-2.8A3.614,3.614,0,0,1,997,543.745a8.005,8.005,0,0,1,8.7.234,4.322,4.322,0,0,1,1.773,3.524h2.677a6.407,6.407,0,0,0-2.443-5.208,9.924,9.924,0,0,0-6.48-2,9.639,9.639,0,0,0-6.112,1.863,5.742,5.742,0,0,0-2.387,4.718,5.369,5.369,0,0,0,.859,3.078,6.64,6.64,0,0,0,2.632,2.153,21.678,21.678,0,0,0,4.985,1.561,12.309,12.309,0,0,1,4.807,1.885,3.8,3.8,0,0,1,1.595,3.19,3.681,3.681,0,0,1-1.718,3.1,7.584,7.584,0,0,1-4.506,1.227,8.07,8.07,0,0,1-4.807-1.3,4.64,4.64,0,0,1-1.974-3.647h-2.677a6.283,6.283,0,0,0,2.621,5.164,10.811,10.811,0,0,0,6.837,2.041,10.529,10.529,0,0,0,6.435-1.829,6.195,6.195,0,0,0,1.617-8.075A6.817,6.817,0,0,0,1006.84,553.169Z" transform="translate(-912.095 -502.475)"/><path class="a" d="M1063.041,540.3a9.274,9.274,0,0,0-5.22,1.595,10.741,10.741,0,0,0-3.759,4.383,14.2,14.2,0,0,0-1.349,6.268v.959a13.18,13.18,0,0,0,1.383,6.078,10.335,10.335,0,0,0,3.87,4.227,10.475,10.475,0,0,0,5.565,1.517,9.737,9.737,0,0,0,8.543-4.26l-1.673-1.271a8.38,8.38,0,0,1-2.977,2.5,8.7,8.7,0,0,1-3.781.781,7.486,7.486,0,0,1-5.922-2.732,10.1,10.1,0,0,1-2.353-6.837v-.513h17.22V551.5q0-5.2-2.576-8.2A8.716,8.716,0,0,0,1063.041,540.3Zm6.892,10.417h-14.476a10.2,10.2,0,0,1,2.509-5.934,6.674,6.674,0,0,1,5.075-2.208,6.153,6.153,0,0,1,4.907,2.186,8.859,8.859,0,0,1,1.985,5.666Z" transform="translate(-951.126 -502.475)"/><path class="a" d="M1132.3,540.3a7.1,7.1,0,0,0-6.8,4.283l-.044-3.836h-2.61v24.135h2.654V548.306a7.638,7.638,0,0,1,2.465-4.049,6.521,6.521,0,0,1,4.227-1.394,9.982,9.982,0,0,1,1.807.156l.067-2.431A4.395,4.395,0,0,0,1132.3,540.3Z" transform="translate(-997.198 -502.475)"/></g></svg>