<svg xmlns="http://www.w3.org/2000/svg" width="55.991" height="38.763" viewBox="0 0 55.991 38.763"><defs><style>.a{fill:#fcfcfc;}</style></defs><path class="a" d="M62.1,20.138,47.613,34.995a.263.263,0,0,0,0,.38L57.748,46.245a1.757,1.757,0,1,1-2.477,2.494L45.177,37.909a.275.275,0,0,0-.39,0L42.324,40.43a10.8,10.8,0,0,1-7.726,3.28,11.016,11.016,0,0,1-7.887-3.375l-2.369-2.426a.275.275,0,0,0-.39,0L13.857,48.74a1.757,1.757,0,1,1-2.477-2.494L21.516,35.374a.29.29,0,0,0,0-.38L7.02,20.138a.265.265,0,0,0-.458.19V50.055a4.335,4.335,0,0,0,4.307,4.338H58.246a4.335,4.335,0,0,0,4.307-4.338V20.328A.269.269,0,0,0,62.1,20.138Z" transform="translate(-6.563 -15.629)"/><path class="a" d="M34.668,38.673a7.559,7.559,0,0,0,5.279-2.092L61.133,16.206a4.4,4.4,0,0,0-2.673-.893H10.89a4.37,4.37,0,0,0-2.673.893L29.4,36.581A7.559,7.559,0,0,0,34.668,38.673Z" transform="translate(-6.673 -15.313)"/></svg>