<svg xmlns="http://www.w3.org/2000/svg" width="122.999" height="26.423" viewBox="0 0 122.999 26.423"><defs><style>.a{fill:#1f1f22;}</style></defs><path class="a" d="M32.445,7.492A12.872,12.872,0,0,1,28.789,8.5a6.389,6.389,0,0,0,2.8-3.525,12.651,12.651,0,0,1-4.044,1.545,6.365,6.365,0,0,0-11.015,4.353,6.233,6.233,0,0,0,.164,1.453A18.043,18.043,0,0,1,3.57,5.664,6.379,6.379,0,0,0,5.55,14.173a6.218,6.218,0,0,1-2.893-.8v.079A6.372,6.372,0,0,0,7.766,19.7a6.409,6.409,0,0,1-1.677.224,6.006,6.006,0,0,1-1.2-.118,6.377,6.377,0,0,0,5.951,4.426,12.765,12.765,0,0,1-7.911,2.729,12.906,12.906,0,0,1-1.519-.092,17.8,17.8,0,0,0,9.746,2.88c11.725,0,18.13-9.713,18.13-18.137,0-.276-.007-.552-.02-.822A12.96,12.96,0,0,0,32.445,7.492Z" transform="translate(44.68 -3.329)"/><path class="a" d="M5.54,24.752H.409V8.227H5.54ZM2.972,5.973a2.986,2.986,0,1,1,2.972-3A3,3,0,0,1,2.972,5.973ZM24.746,24.752h-5.12V16.708c0-1.917-.039-4.376-2.668-4.376-2.668,0-3.077,2.083-3.077,4.238v8.182H8.755V8.227h4.922v2.254h.072A5.392,5.392,0,0,1,18.6,7.813c5.193,0,6.148,3.42,6.148,7.862v9.077Z" transform="translate(98.248 1.17)"/><path class="a" d="M23.268,2.25H2.792A2.792,2.792,0,0,0,0,5.042V25.518A2.792,2.792,0,0,0,2.792,28.31h7.984V19.45H7.111V15.28h3.665V12.1c0-3.615,2.152-5.612,5.449-5.612a22.2,22.2,0,0,1,3.23.282v3.548H17.636a2.085,2.085,0,0,0-2.351,2.253V15.28h4l-.64,4.17H15.284v8.86h7.984a2.792,2.792,0,0,0,2.792-2.792V5.042A2.792,2.792,0,0,0,23.268,2.25Z" transform="translate(0 -2.25)"/></svg>