<svg xmlns="http://www.w3.org/2000/svg" width="35" height="45" viewBox="0 0 55.991 45.561"><defs><style>.a{fill:#fcfcfc;}</style></defs><path class="a" d="M57.4,9.9a23.224,23.224,0,0,1-6.6,1.815,11.527,11.527,0,0,0,5.054-6.36,22.826,22.826,0,0,1-7.3,2.788A11.484,11.484,0,0,0,28.691,16a11.246,11.246,0,0,0,.3,2.622A32.554,32.554,0,0,1,5.3,6.6,11.51,11.51,0,0,0,8.876,21.953a11.22,11.22,0,0,1-5.221-1.436v.142a11.5,11.5,0,0,0,9.219,11.272,11.563,11.563,0,0,1-3.026.4,10.837,10.837,0,0,1-2.159-.214,11.505,11.505,0,0,0,10.738,7.985A23.031,23.031,0,0,1,4.154,45.031a23.285,23.285,0,0,1-2.741-.166A32.109,32.109,0,0,0,19,50.061c21.155,0,32.712-17.525,32.712-32.724,0-.5-.012-1-.036-1.483A23.384,23.384,0,0,0,57.4,9.9Z" transform="translate(-1.413 -4.5)"/></svg>